<svg width="151" height="51" fill="none" xmlns="http://www.w3.org/2000/svg"><path d="M35.316 30H.9v-3.132c0-.672.012-1.236.036-1.692.048-.48.168-1.104.36-1.872.216-.792.504-1.476.864-2.052.36-.6.888-1.272 1.584-2.016a11.88 11.88 0 0 1 2.556-1.98c1.008-.576 2.268-1.152 3.78-1.728 1.536-.576 3.264-1.068 5.184-1.476 1.392-.336 3.12-.684 5.184-1.044 1.584-.312 2.604-.612 3.06-.9.456-.288.684-.66.684-1.116 0-.36-.132-.648-.396-.864-.24-.24-.816-.444-1.728-.612-.888-.192-2.136-.288-3.744-.288-1.176 0-2.196.096-3.06.288-.84.192-1.476.408-1.908.648a2.793 2.793 0 0 0-1.008.9c-.24.384-.396.684-.468.9a4.72 4.72 0 0 0-.108.756H1.332v-.252c0-6.504 5.304-9.756 15.912-9.756h1.548c2.616 0 4.896.156 6.84.468 1.968.288 3.528.684 4.68 1.188 1.176.48 2.112 1.092 2.808 1.836.696.744 1.164 1.5 1.404 2.268.264.744.396 1.596.396 2.556v.144c0 1.536-.348 2.796-1.044 3.78-.696.96-1.932 1.788-3.708 2.484-1.752.696-4.236 1.308-7.452 1.836l-5.76.972c-4.776.816-7.164 1.824-7.164 3.024h16.056V20.1h9.468V30Zm40.893-13.968v1.08c0 1.128-.12 2.22-.36 3.276-.216 1.056-.732 2.232-1.548 3.528-.792 1.272-1.836 2.376-3.132 3.312-1.296.912-3.132 1.692-5.508 2.34-2.352.624-5.1.936-8.244.936h-1.62c-3.144 0-5.904-.312-8.28-.936-2.376-.648-4.212-1.428-5.508-2.34-1.296-.936-2.352-2.04-3.168-3.312-.792-1.296-1.308-2.472-1.548-3.528a16.309 16.309 0 0 1-.324-3.276v-1.08c0-.792.048-1.56.144-2.304.12-.744.348-1.572.684-2.484.36-.912.816-1.752 1.368-2.52.552-.792 1.308-1.56 2.268-2.304.984-.768 2.112-1.416 3.384-1.944 1.296-.528 2.88-.948 4.752-1.26 1.872-.336 3.948-.504 6.228-.504h1.62c2.28 0 4.356.168 6.228.504 1.872.312 3.444.732 4.716 1.26 1.272.528 2.388 1.176 3.348 1.944.984.744 1.752 1.512 2.304 2.304.552.768.996 1.608 1.332 2.52.36.912.588 1.74.684 2.484.12.744.18 1.512.18 2.304Zm-10.62.684v-.468c0-.768-.144-1.488-.432-2.16-.264-.696-.72-1.368-1.368-2.016-.624-.672-1.56-1.2-2.808-1.584-1.224-.384-2.688-.576-4.392-.576-1.752 0-3.252.192-4.5.576-1.248.384-2.184.912-2.808 1.584-.624.648-1.068 1.32-1.332 2.016a5.854 5.854 0 0 0-.396 2.16v.432c0 .768.132 1.512.396 2.232.288.696.744 1.392 1.368 2.088.648.672 1.596 1.212 2.844 1.62 1.248.408 2.724.612 4.428.612 1.704 0 3.168-.204 4.392-.612 1.248-.408 2.184-.948 2.808-1.62.648-.672 1.104-1.356 1.368-2.052.288-.72.432-1.464.432-2.232Zm11.906 2.376 18.72-16.02h11.232v14.904h5.58v6.912h-5.58V30H97.259v-5.112H77.495v-5.796Zm19.764-1.116V9.984l-9.36 7.992h9.36Zm51.791-8.064v.324c0 1.536-.6 2.808-1.8 3.816-1.2.984-2.592 1.584-4.176 1.8 1.848.312 3.408.996 4.68 2.052 1.296 1.056 1.944 2.4 1.944 4.032v.396c0 .768-.096 1.476-.288 2.124-.168.648-.6 1.368-1.296 2.16-.696.792-1.632 1.464-2.808 2.016-1.152.528-2.808.984-4.968 1.368-2.16.36-4.704.54-7.632.54h-1.548c-2.976 0-5.556-.18-7.74-.54-2.16-.384-3.828-.84-5.004-1.368-1.152-.552-2.064-1.224-2.736-2.016-.672-.816-1.092-1.536-1.26-2.16-.168-.624-.252-1.332-.252-2.124v-.396c0-1.608.648-2.94 1.944-3.996 1.296-1.08 2.856-1.776 4.68-2.088-1.656-.264-3.072-.876-4.248-1.836-1.176-.984-1.764-2.244-1.764-3.78v-.324c0-.552.06-1.044.18-1.476.12-.456.348-.984.684-1.584.36-.6.912-1.128 1.656-1.584.768-.456 1.728-.888 2.88-1.296 1.152-.408 2.664-.72 4.536-.936 1.872-.216 4.02-.324 6.444-.324h1.584c2.088 0 3.972.096 5.652.288 1.68.168 3.072.396 4.176.684 1.128.264 2.1.6 2.916 1.008.816.408 1.44.816 1.872 1.224.456.408.816.876 1.08 1.404.264.504.432.948.504 1.332.072.384.108.804.108 1.26Zm-10.62.972v-.108c0-.288-.072-.54-.216-.756-.12-.216-.384-.444-.792-.684-.408-.24-1.08-.42-2.016-.54-.912-.12-2.076-.18-3.492-.18-1.872 0-3.324.132-4.356.396-1.008.24-1.62.492-1.836.756-.216.264-.324.6-.324 1.008v.108c0 .312.06.588.18.828.144.216.42.444.828.684.432.216 1.104.396 2.016.54.936.12 2.1.18 3.492.18s2.544-.06 3.456-.18c.936-.144 1.608-.324 2.016-.54.432-.24.708-.468.828-.684.144-.24.216-.516.216-.828Zm.72 10.8v-.108c0-.48-.144-.864-.432-1.152-.288-.312-.996-.588-2.124-.828-1.104-.264-2.664-.396-4.68-.396-2.016 0-3.588.132-4.716.396-1.104.24-1.8.516-2.088.828-.264.288-.396.672-.396 1.152v.108c0 1.656 2.4 2.484 7.2 2.484 4.824 0 7.236-.828 7.236-2.484ZM4.673 47v-2.714L2.5 40.52h.765l1.741 3.01 1.733-3.01h.765L5.34 44.286V47h-.667Zm4.767.135c-.483 0-.896-.11-1.238-.328a2.137 2.137 0 0 1-.787-.91c-.183-.386-.275-.83-.275-1.331 0-.51.093-.958.28-1.342.185-.383.45-.682.791-.895.345-.216.755-.324 1.229-.324.486 0 .9.11 1.242.328.345.217.607.518.787.905.183.384.275.827.275 1.328 0 .51-.092.958-.275 1.345a2.103 2.103 0 0 1-.792.9c-.345.216-.757.324-1.237.324Zm0-.634c.54 0 .942-.179 1.206-.536.264-.36.396-.827.396-1.4 0-.587-.134-1.055-.4-1.404-.265-.348-.665-.522-1.202-.522-.363 0-.663.083-.9.248-.234.162-.41.389-.527.68a2.701 2.701 0 0 0-.17.998c0 .586.134 1.055.404 1.409.27.351.668.527 1.193.527Zm5.155.62c-.291 0-.546-.044-.765-.135-.216-.09-.4-.211-.554-.364a1.922 1.922 0 0 1-.364-.522 2.63 2.63 0 0 1-.203-.626 3.552 3.552 0 0 1-.063-.661V42.14h.666v2.48c0 .267.026.514.077.742.05.228.132.427.243.599.114.168.26.298.436.391.18.093.398.14.653.14.234 0 .44-.041.616-.122.18-.081.33-.197.45-.346.123-.154.216-.338.28-.554.062-.219.094-.465.094-.738l.468.104c0 .498-.087.916-.261 1.255a1.809 1.809 0 0 1-.72.77 2.093 2.093 0 0 1-1.053.26ZM16.228 47v-1.197h-.067V42.14h.661V47h-.594Zm1.852 0v-4.86h.594v1.17l-.117-.153a1.67 1.67 0 0 1 .495-.697c.126-.111.273-.196.441-.252.168-.06.338-.095.509-.104.17-.012.327 0 .468.036v.621a1.605 1.605 0 0 0-.58-.032c-.21.025-.404.108-.581.252a1.207 1.207 0 0 0-.365.455c-.08.174-.135.36-.162.558-.027.195-.04.389-.04.58V47h-.662Zm5.045 0v-6.48h.608l2.547 5.45 2.533-5.45h.617v6.475h-.63v-4.999L26.49 47h-.427l-2.304-5.004V47h-.635Zm9.597.135c-.483 0-.896-.11-1.238-.328a2.137 2.137 0 0 1-.787-.91c-.183-.386-.274-.83-.274-1.331 0-.51.093-.958.279-1.342.185-.383.45-.682.791-.895.346-.216.755-.324 1.229-.324.486 0 .9.11 1.242.328.345.217.608.518.788.905.182.384.274.827.274 1.328 0 .51-.092.958-.275 1.345a2.103 2.103 0 0 1-.791.9c-.346.216-.758.324-1.238.324Zm0-.634c.54 0 .942-.179 1.206-.536.264-.36.396-.827.396-1.4 0-.587-.133-1.055-.4-1.404-.264-.348-.665-.522-1.202-.522-.363 0-.663.083-.9.248-.234.162-.41.389-.526.68a2.701 2.701 0 0 0-.171.998c0 .586.134 1.055.404 1.409.27.351.668.527 1.193.527Zm4.435.499-1.764-4.86h.67l1.436 3.996 1.426-3.996h.68L37.84 47h-.684Zm5.137.135c-.474 0-.885-.105-1.233-.315a2.138 2.138 0 0 1-.806-.886c-.192-.381-.288-.828-.288-1.341 0-.532.095-.99.284-1.378.189-.387.454-.685.796-.895.345-.21.752-.315 1.22-.315.48 0 .89.111 1.228.333.34.219.596.534.77.945.174.411.253.901.238 1.471h-.675v-.233c-.012-.63-.148-1.106-.41-1.427-.257-.321-.635-.482-1.133-.482-.522 0-.923.17-1.202.509-.276.339-.414.822-.414 1.449 0 .612.138 1.087.414 1.426.28.337.674.505 1.184.505.348 0 .65-.08.909-.239.26-.162.466-.395.616-.697l.617.238a2.204 2.204 0 0 1-.85.986 2.348 2.348 0 0 1-1.265.346Zm-1.859-2.38V44.2h3.713v.553h-3.713Zm4.801 3.185.04-.328c.12.009.208-.015.262-.072a.394.394 0 0 0 .099-.23c.012-.096.015-.199.009-.31h-.41v-.95h.77v1.13c0 .276-.07.483-.212.621-.138.138-.324.184-.558.14Zm5.826-.94v-2.714L48.89 40.52h.765l1.741 3.01 1.733-3.01h.765l-2.165 3.766V47h-.666Zm4.766.135c-.483 0-.895-.11-1.237-.328a2.137 2.137 0 0 1-.788-.91c-.183-.386-.274-.83-.274-1.331 0-.51.093-.958.279-1.342.186-.383.45-.682.792-.895.345-.216.754-.324 1.228-.324.486 0 .9.11 1.242.328.345.217.608.518.788.905.183.384.274.827.274 1.328 0 .51-.091.958-.274 1.345a2.103 2.103 0 0 1-.792.9c-.345.216-.758.324-1.238.324Zm0-.634c.54 0 .942-.179 1.206-.536.264-.36.396-.827.396-1.4 0-.587-.133-1.055-.4-1.404-.264-.348-.665-.522-1.202-.522-.363 0-.663.083-.9.248-.234.162-.41.389-.526.68a2.701 2.701 0 0 0-.171.998c0 .586.135 1.055.405 1.409.27.351.667.527 1.192.527Zm5.156.62c-.291 0-.546-.044-.765-.135-.216-.09-.4-.211-.554-.364a1.922 1.922 0 0 1-.364-.522 2.63 2.63 0 0 1-.203-.626 3.552 3.552 0 0 1-.063-.661V42.14h.666v2.48c0 .267.026.514.077.742.05.228.132.427.243.599.114.168.26.298.436.391.18.093.398.14.653.14.234 0 .44-.041.616-.122.18-.081.33-.197.45-.346.123-.154.216-.338.28-.554.062-.219.094-.465.094-.738l.468.104c0 .498-.087.916-.261 1.255a1.809 1.809 0 0 1-.72.77 2.093 2.093 0 0 1-1.053.26ZM62.617 47v-1.197h-.067V42.14h.661V47h-.594Zm1.852 0v-4.86h.594v1.17l-.117-.153a1.67 1.67 0 0 1 .495-.697c.126-.111.273-.196.44-.252.169-.06.338-.095.51-.104.17-.012.326 0 .467.036v.621a1.605 1.605 0 0 0-.58-.032c-.21.025-.404.108-.58.252a1.207 1.207 0 0 0-.365.455c-.081.174-.135.36-.162.558-.027.195-.04.389-.04.58V47h-.662Zm7.641.135c-.456 0-.867-.08-1.233-.238a2.615 2.615 0 0 1-.936-.68 3.034 3.034 0 0 1-.585-1.062 4.514 4.514 0 0 1-.202-1.395c0-.678.117-1.269.35-1.773a2.72 2.72 0 0 1 1.018-1.179c.44-.279.97-.419 1.588-.419.69 0 1.251.162 1.683.486.435.322.738.754.91 1.297l-.667.162a1.96 1.96 0 0 0-.697-.95c-.321-.237-.722-.355-1.202-.355-.507-.004-.928.11-1.264.341-.336.229-.59.55-.76.964-.169.41-.254.886-.257 1.426-.003.54.08 1.016.247 1.427.171.407.426.729.765.963.34.23.762.348 1.27.35.464 0 .848-.09 1.151-.27.303-.18.533-.438.689-.773.159-.337.249-.734.27-1.193h-1.494v-.567h2.187c.009.069.013.142.013.22.003.075.005.13.005.163 0 .584-.105 1.108-.315 1.57a2.48 2.48 0 0 1-.95 1.089c-.42.264-.948.396-1.584.396Zm5.14 0c-.366 0-.674-.066-.922-.198a1.343 1.343 0 0 1-.554-.526 1.437 1.437 0 0 1-.184-.716c0-.264.052-.489.157-.675.108-.189.254-.344.436-.464.186-.12.401-.211.644-.274.246-.06.517-.112.814-.157.3-.048.593-.089.878-.122.288-.036.54-.07.756-.103l-.234.144c.009-.48-.084-.836-.279-1.067-.195-.231-.534-.346-1.017-.346-.333 0-.615.075-.846.224-.228.15-.389.388-.481.712l-.644-.19c.111-.434.335-.772.67-1.012.337-.24.773-.36 1.31-.36.444 0 .82.084 1.13.252.311.165.532.405.661.72.06.141.099.299.117.473.018.173.027.35.027.53V47h-.59v-1.22l.171.072a1.926 1.926 0 0 1-.769.955c-.348.218-.765.328-1.251.328Zm.076-.572c.31 0 .58-.055.81-.166a1.465 1.465 0 0 0 .833-1.111c.036-.157.056-.328.059-.514l.004-.422.252.13c-.225.03-.47.06-.734.09-.26.03-.519.065-.773.103-.252.04-.48.086-.684.14a1.855 1.855 0 0 0-.401.166.924.924 0 0 0-.32.28.749.749 0 0 0-.121.436c0 .141.034.277.103.41a.842.842 0 0 0 .343.328c.159.087.368.13.63.13Zm9.33.437.005-3.19c0-.376-.105-.67-.315-.883a1.05 1.05 0 0 0-.792-.324c-.183 0-.362.042-.535.127a1.033 1.033 0 0 0-.433.405c-.11.186-.166.428-.166.729l-.392-.113a1.764 1.764 0 0 1 .203-.913c.147-.261.348-.464.603-.608.258-.147.549-.22.873-.22.489 0 .88.151 1.175.454.293.3.44.706.44 1.22L87.319 47h-.662Zm-5.8 0v-4.86h.594v1.197h.072V47h-.666Zm2.907 0 .004-3.145c0-.387-.103-.692-.31-.914-.204-.225-.474-.338-.81-.338-.336 0-.608.116-.815.347-.206.228-.31.532-.31.913l-.396-.215a1.6 1.6 0 0 1 .22-.838 1.57 1.57 0 0 1 .603-.585c.255-.144.545-.215.869-.215.309 0 .584.066.823.198.243.132.434.324.572.575.138.252.207.559.207.919L84.415 47h-.652Zm6.756.135c-.474 0-.885-.105-1.233-.315a2.138 2.138 0 0 1-.805-.886c-.192-.381-.288-.828-.288-1.341 0-.532.094-.99.284-1.378.188-.387.454-.685.796-.895.345-.21.752-.315 1.22-.315.48 0 .889.111 1.228.333.339.219.596.534.77.945.174.411.253.901.238 1.471h-.675v-.233c-.012-.63-.148-1.106-.41-1.427-.258-.321-.636-.482-1.134-.482-.522 0-.922.17-1.201.509-.276.339-.414.822-.414 1.449 0 .612.138 1.087.414 1.426.279.337.674.505 1.184.505.348 0 .65-.08.909-.239.26-.162.466-.395.616-.697l.617.238a2.204 2.204 0 0 1-.851.986 2.348 2.348 0 0 1-1.265.346Zm-1.858-2.38V44.2h3.713v.553H88.66Zm4.8 3.185.041-.328c.12.009.207-.015.261-.072a.394.394 0 0 0 .1-.23c.011-.096.014-.199.008-.31h-.41v-.95h.77v1.13c0 .276-.07.483-.211.621-.138.138-.324.184-.558.14Zm5.827-.94v-2.714l-2.174-3.766h.765l1.742 3.01 1.732-3.01h.765l-2.164 3.766V47h-.666Zm4.766.135c-.483 0-.895-.11-1.237-.328a2.138 2.138 0 0 1-.788-.91c-.183-.386-.274-.83-.274-1.331 0-.51.093-.958.279-1.342.186-.383.45-.682.792-.895.345-.216.754-.324 1.228-.324.486 0 .9.11 1.242.328.345.217.608.518.788.905.183.384.274.827.274 1.328 0 .51-.091.958-.274 1.345a2.103 2.103 0 0 1-.792.9c-.345.216-.758.324-1.238.324Zm0-.634c.54 0 .942-.179 1.206-.536.264-.36.396-.827.396-1.4 0-.587-.133-1.055-.4-1.404-.264-.348-.665-.522-1.202-.522-.363 0-.663.083-.9.248a1.467 1.467 0 0 0-.526.68 2.701 2.701 0 0 0-.171.998c0 .586.135 1.055.405 1.409.27.351.667.527 1.192.527Zm5.155.62c-.291 0-.546-.044-.765-.135-.216-.09-.4-.211-.553-.364a1.924 1.924 0 0 1-.365-.522 2.63 2.63 0 0 1-.202-.626 3.552 3.552 0 0 1-.063-.661V42.14h.666v2.48c0 .267.025.514.076.742.051.228.132.427.243.599.114.168.26.298.437.391.18.093.397.14.652.14.234 0 .44-.041.617-.122.18-.081.33-.197.45-.346.123-.154.216-.338.279-.554.063-.219.094-.465.094-.738l.468.104c0 .498-.087.916-.261 1.255a1.809 1.809 0 0 1-.72.77 2.093 2.093 0 0 1-1.053.26Zm1.634-.121v-1.197h-.068V42.14h.662V47h-.594Zm1.851 0v-4.86h.594v1.17l-.117-.153a1.671 1.671 0 0 1 .495-.697c.126-.111.273-.196.441-.252.168-.06.338-.095.509-.104.171-.012.327 0 .468.036v.621a1.608 1.608 0 0 0-.581-.032c-.21.025-.403.108-.58.252a1.209 1.209 0 0 0-.365.455c-.081.174-.135.36-.162.558-.027.195-.04.389-.04.58V47h-.662Zm6.692 0-2.232-6.48h.689l1.975 5.728 1.989-5.728h.689L120.264 47h-.878Zm3.699-5.782v-.743h.662v.742h-.662Zm0 5.782v-4.86h.662V47h-.662Zm4.027.135c-.489 0-.903-.11-1.242-.328a2.094 2.094 0 0 1-.774-.905 3.316 3.316 0 0 1-.27-1.332c.006-.51.099-.957.279-1.341.18-.387.439-.687.778-.9.339-.216.75-.324 1.233-.324.492 0 .92.12 1.283.36.366.24.616.569.751.985l-.648.207a1.368 1.368 0 0 0-.544-.675 1.503 1.503 0 0 0-.846-.242c-.357 0-.653.082-.887.247a1.44 1.44 0 0 0-.522.68 2.8 2.8 0 0 0-.175 1.003c.006.582.141 1.05.405 1.404.264.351.657.527 1.179.527.33 0 .61-.075.841-.225.234-.154.411-.376.531-.667l.666.198c-.18.432-.444.762-.792.99-.348.226-.763.338-1.246.338Zm5.613-.135c-.273.057-.543.08-.81.068a1.797 1.797 0 0 1-.711-.171 1.025 1.025 0 0 1-.472-.477 1.402 1.402 0 0 1-.144-.545 19.895 19.895 0 0 1-.009-.635v-4.45h.657v4.424c0 .203.001.375.004.513a.821.821 0 0 0 .095.36.677.677 0 0 0 .513.36c.237.038.529.03.877-.028V47Zm-3.186-4.293v-.567h3.186v.567h-3.186Zm5.997 4.428c-.483 0-.895-.11-1.237-.328a2.138 2.138 0 0 1-.788-.91c-.183-.386-.274-.83-.274-1.331 0-.51.093-.958.279-1.342.186-.383.45-.682.792-.895.345-.216.754-.324 1.228-.324.486 0 .9.11 1.242.328.345.217.608.518.788.905.183.384.274.827.274 1.328 0 .51-.091.958-.274 1.345a2.103 2.103 0 0 1-.792.9c-.345.216-.758.324-1.238.324Zm0-.634c.54 0 .942-.179 1.206-.536.264-.36.396-.827.396-1.4 0-.587-.133-1.055-.4-1.404-.264-.348-.665-.522-1.202-.522-.363 0-.663.083-.9.248a1.467 1.467 0 0 0-.526.68 2.701 2.701 0 0 0-.171.998c0 .586.135 1.055.405 1.409.27.351.667.527 1.192.527Zm3.297.499v-4.86h.594v1.17l-.117-.153a1.671 1.671 0 0 1 .495-.697c.126-.111.273-.196.441-.252.168-.06.338-.095.509-.104.171-.012.327 0 .468.036v.621a1.608 1.608 0 0 0-.581-.032c-.21.025-.403.108-.58.252a1.209 1.209 0 0 0-.365.455c-.081.174-.135.36-.162.558-.027.195-.04.389-.04.58V47h-.662Zm3.875 2.16.94-2.551.014.755-2.129-5.224h.702l1.746 4.37h-.288l1.611-4.37h.675l-2.61 7.02h-.661Zm3.458-2.16v-.77h.77V47h-.77Z" fill="#fff"/></svg>